<?xml version="1.0" encoding="UTF-8" standalone="no"?>
<!-- Created with Inkscape (http://www.inkscape.org/) -->

<svg
   xmlns:dc="http://purl.org/dc/elements/1.1/"
   xmlns:cc="http://creativecommons.org/ns#"
   xmlns:rdf="http://www.w3.org/1999/02/22-rdf-syntax-ns#"
   xmlns:svg="http://www.w3.org/2000/svg"
   xmlns="http://www.w3.org/2000/svg"
   xmlns:sodipodi="http://sodipodi.sourceforge.net/DTD/sodipodi-0.dtd"
   xmlns:inkscape="http://www.inkscape.org/namespaces/inkscape"
   id="svg4169"
   version="1.1"
   inkscape:version="0.91 r13725"
   xml:space="preserve"
   width="24in"
   height="16in"
   viewBox="0 0 2160 1440"
   sodipodi:docname="rocker-cut2.svg"><metadata
     id="metadata4175"><rdf:RDF><cc:Work
         rdf:about=""><dc:format>image/svg+xml</dc:format><dc:type
           rdf:resource="http://purl.org/dc/dcmitype/StillImage" /><dc:title></dc:title></cc:Work></rdf:RDF></metadata><defs
     id="defs4173"><clipPath
       clipPathUnits="userSpaceOnUse"
       id="clipPath4183"><path
         d="m 0,0 1224,0 0,792 L 0,792 0,0 Z"
         id="path4185"
         inkscape:connector-curvature="0" /></clipPath></defs><sodipodi:namedview
     pagecolor="#ffffff"
     bordercolor="#666666"
     borderopacity="1"
     objecttolerance="10"
     gridtolerance="10"
     guidetolerance="10"
     inkscape:pageopacity="0"
     inkscape:pageshadow="2"
     inkscape:window-width="1920"
     inkscape:window-height="1016"
     id="namedview4171"
     showgrid="false"
     inkscape:zoom="0.42777778"
     inkscape:cx="606.82026"
     inkscape:cy="560.38333"
     inkscape:window-x="0"
     inkscape:window-y="27"
     inkscape:window-maximized="1"
     inkscape:current-layer="layer3"
     fit-margin-top="0"
     fit-margin-left="0"
     fit-margin-right="0"
     fit-margin-bottom="0"
     units="in" /><g
     id="g4177"
     inkscape:groupmode="layer"
     inkscape:label="Cut line"
     transform="matrix(1.25,0,0,-1.25,333.65486,1506.0419)"><path
       style="display:inline;fill:none;fill-rule:evenodd;stroke:#ff0000;stroke-width:4;stroke-linecap:butt;stroke-linejoin:miter;stroke-miterlimit:4;stroke-dasharray:none;stroke-opacity:1"
       d="m 1199.2579,1204.8335 0,-1151.999968"
       id="path5060"
       inkscape:connector-curvature="0" /></g><g
     inkscape:groupmode="layer"
     id="layer3"
     inkscape:label="Parts"><path
       id="path8502"
       style="fill:none;stroke:#00a334;stroke-width:14.1732235;stroke-linecap:round;stroke-linejoin:round;stroke-miterlimit:10;stroke-dasharray:none;stroke-opacity:1"
       d="m 783.91856,93.585556 c 1.0863,12.830634 12.3677,22.351504 25.1983,21.265384 l 23.738,-2.00925 c 2.3767,-0.20125 4.7091,-0.76375 6.9166,-1.66663 3.2488,-1.32962 6.8266,-1.63237 10.2525,-0.8675 2.328,0.52 4.7216,0.68125 7.0984,0.48 l 10.4264,-0.8825 c 9.4572,-0.8 17.7727,6.21713 18.5732,15.67437 0.037,0.4825 0.062,0.96625 0.062,1.44938 l -6e-4,335.24397 c 0,9.49113 -7.694,17.18513 -17.1851,17.18513 -5.0975,0 -9.932,-2.26313 -13.1972,-6.17775 L 563.03126,122.26581 c -6.0793,-7.28862 -5.0988,-18.12537 2.1898,-24.204504 1.9284,-1.60837 4.1859,-2.77475 6.6135,-3.41675 52.6948,-13.93562 106.3888,-23.77325 160.6013,-29.42462 10.4631,-1.09125 20.9316,-2.13013 31.4049,-3.11825 9.4491,-0.89125 17.8317,6.046 18.7231,15.49512 0.01,0.05 0.01,0.1125 0.013,0.165 z m 5.2158,823.617964 12.8626,40.795 -17.978,5.66838 -12.8626,-40.795 z m -13.8429,-43.904 -17.978,5.6685 -12.8625,-40.795 17.9779,-5.6685 z m -40.7992,13.53275 c 1.3816,4.38188 4.0177,8.26238 7.5822,11.16125 5.3296,4.33463 7.5658,11.42675 5.6861,18.03438 -1.257,4.41912 -1.1912,9.10987 0.1913,13.49175 l 13.2992,42.1805 c 1.807,5.731 5.7569,10.543 11.0258,13.43225 3.8836,2.12962 6.7951,5.67637 8.127,9.90062 l 25.8399,81.95358 c 1.548,4.9096 0.8137,10.2545 -2.0014,14.5646 -0.55,0.8437 -1.0725,1.7052 -1.5668,2.584 -4.646,8.2761 -15.1213,11.219 -23.3976,6.573 -2.2492,-1.2626 -4.1854,-3.0154 -5.6649,-5.1284 L 553.14826,780.72328 c -5.4439,-7.77462 -3.5544,-18.49025 4.2201,-23.93412 4.8371,-3.38688 11.0742,-4.05325 16.5177,-1.76463 l 136.7777,57.50838 c 7.7318,3.251 11.9875,11.6085 10.0685,19.77361 -0.96,4.08163 -0.8,8.34638 0.46,12.34525 z M 328.92296,192.44718 c 47.6498,-26.46562 97.2759,-49.20475 148.434,-68.01375 8.9081,-3.27524 18.7845,1.29113 22.0598,10.19913 0.8662,2.357 1.2062,4.87512 0.995,7.37737 l -38.4893,455.45973 c -0.7987,9.45725 -9.1137,16.47612 -18.571,15.67687 -5.0795,-0.42875 -9.7062,-3.09137 -12.6301,-7.26712 l -192.288,-274.61575 c -5.4439,-7.77463 -3.5544,-18.49025 4.2202,-23.93413 0.3963,-0.2775 0.8038,-0.5375 1.2225,-0.78125 l 9.0468,-5.25725 c 2.0624,-1.19875 3.9302,-2.70412 5.5392,-4.465 2.3678,-2.59137 5.4723,-4.3955 8.896,-5.16975 2.3267,-0.52625 4.5594,-1.4035 6.6218,-2.602 l 20.5975,-11.96962 c 11.1331,-6.46963 14.9136,-20.73963 8.4439,-31.87275 l -7.9792,-13.7306 c -4.7687,-8.20613 -1.9822,-18.72425 6.2239,-23.49288 0.05,-0.025 0.1,-0.05 0.1438,-0.0875 9.1457,-5.19525 18.3171,-10.34825 27.5137,-15.45625 z m 581.3901,923.76252 c 0,37.7292 -30.5856,68.315 -68.315,68.315 -22.2887,0 -43.176,-10.8733 -55.9602,-29.1311 L 184.04246,295.65503 c -11.7545,-16.78712 -7.6747,-39.92462 9.1124,-51.67912 0.61,-0.4275 1.2325,-0.83625 1.8674,-1.225 40.2036,-24.6861 80.9413,-48.4911 122.1843,-71.3981 127.3962,-70.75825 267.7858,-115.023004 412.7279,-130.132624 46.9233,-4.89163 93.9478,-8.758 141.0398,-11.59638 20.4561,-1.2325 38.0386,14.3505 39.2716,34.80663 0.05,0.74375 0.062,1.48787 0.062,2.2325 z m -80.129,-1027.358144 -22.2903,1.88675 -1.5899,-18.78325 22.2904,-1.88675 z m 28.5984,985.503144 c -4.778,-1.916 -8.4454,-5.8731 -9.9934,-10.7828 l -25.8398,-81.9535 c -1.3319,-4.22413 -0.9813,-8.7995 0.9787,-12.7715 2.6588,-5.38888 3.1343,-11.59625 1.3273,-17.32713 l -13.2995,-42.1805 c -1.3815,-4.38187 -4.0178,-8.26237 -7.5822,-11.16137 -5.3296,-4.3345 -7.5658,-11.42663 -5.6862,-18.03425 1.2571,-4.41925 1.1912,-9.11 -0.1913,-13.49188 l -13.2992,-42.18049 c -1.2609,-3.99875 -3.5768,-7.58362 -6.7036,-10.37687 -6.2553,-5.58775 -7.563,-14.87475 -3.094,-21.97263 l 79.0562,-125.5605 c 5.0569,-8.03162 15.6673,-10.44312 23.6989,-5.38612 4.997,3.14625 8.0287,8.63762 8.0287,14.5425 l 0,384.36894 c 0,9.4911 -7.694,17.1851 -17.1851,17.1851 -2.5794,0 -5.1257,-0.5813 -7.4501,-1.6993 -0.9075,-0.4362 -1.8305,-0.8425 -2.7655,-1.2175 z m -637.8766,-782.36654 -9.4713,-16.29825 19.3414,-11.23975 9.4713,16.29825 z m 621.0922,845.18654 c -11.5786,0 -20.965,-9.3864 -20.965,-20.965 0,-11.5788 9.3864,-20.965 20.965,-20.965 11.5788,0 20.9652,9.3862 20.9652,20.965 0,11.5786 -9.3864,20.965 -20.9652,20.965 z m 34.4252,-1071.154894 1.5898,18.78325 -22.2903,1.88675 -1.5899,-18.78325 z m -614.016,201.851104 -9.4713,-16.29825 19.3414,-11.23973 9.4712,16.29823 z m 254.8425,388.08162 20.4803,0 0,9 230.6693,0 0,-9 20.4804,0 0,-25.62987 -20.4804,0 0,-22.37013 20.4804,0 0,-25.62987 -20.4804,0 0,-9 -230.6693,0 0,9 -20.4803,0 0,25.62987 20.4803,0 0,22.37013 -20.4803,0 z m 0,-147 0,-25.62987 20.4803,0 0,-9 230.6693,0 0,9 20.4804,0 0,25.62987 -20.4804,0 0,22.37013 20.4804,0 0,25.62987 -20.4804,0 0,9 -230.6693,0 0,-9 -20.4803,0 0,-25.62987 20.4803,0 0,-22.37013 z m -37.1893,160.43813 43.2011,-511.22085 c 0.7988,-9.45738 9.1138,-16.47613 18.571,-15.677 4.5768,0.38625 8.8083,2.58962 11.7502,6.11675 l 328.6125,393.98847 c 2.5767,3.08925 3.988,6.98463 3.988,11.00738 l 0,12.31737 c 0,3.24013 -0.9163,6.41438 -2.6425,9.15638 l -133.6013,212.19112 c -4.4802,7.11575 -13.4517,9.9445 -21.2032,6.68538 l -231.1475,-97.18638 c -2.9869,-1.25587 -5.558,-3.3305 -7.4165,-5.98475 l -7.0649,-10.08987 c -2.3074,-3.29525 -3.3856,-7.2955 -3.0469,-11.304 z" /><path
       id="path7814"
       style="fill:none;stroke:#19cd00;stroke-width:14.1732235;stroke-linecap:round;stroke-linejoin:round;stroke-miterlimit:10;stroke-dasharray:none;stroke-opacity:1"
       d="m 210.37546,636.81778 136.7776,57.5085 c 8.7492,3.67863 18.8238,-0.4325 22.5024,-9.181 2.2886,-5.44337 1.6224,-11.68062 -1.7646,-16.51762 L 147.42596,353.77103 c -5.4439,-7.7745 -16.1595,-9.664 -23.9341,-4.22012 -2.1129,1.47937 -3.8658,3.41562 -5.1284,5.66487 -0.4925,0.87875 -1.015,1.74025 -1.5666,2.584 -2.815,4.31 -3.5495,9.655 -2.0015,14.56463 l 25.8399,81.9535 c 1.3318,4.22412 4.2432,7.771 8.127,9.90062 5.2688,2.88925 9.2187,7.70125 11.0257,13.43225 l 13.2995,42.1805 c 1.3816,4.38175 1.4479,9.07263 0.1913,13.49175 -1.8799,6.60763 0.3562,13.69975 5.6858,18.03425 3.5645,2.899 6.2007,6.7795 7.5823,11.16138 l 13.2995,42.1805 c 1.2607,3.99875 1.42,8.26362 0.4612,12.345 -1.9191,8.165 2.3365,16.5225 10.0683,19.77362 z M 34.856062,895.74527 c 0,4.023 1.4112,7.91825 3.9879,11.00738 L 367.45646,1300.7412 c 6.0791,7.2887 16.9159,8.2692 24.2045,2.19 3.5271,-2.9419 5.7299,-7.1733 6.1166,-11.75 l 43.2012,-511.22104 c 0.3387,-4.00838 -0.74,-8.00875 -3.0469,-11.304 l -7.0649,-10.09 c -1.8585,-2.65438 -4.4296,-4.72913 -7.4165,-5.98488 l -231.1475,-97.18625 c -7.7515,-3.25925 -16.723,-0.43 -21.2032,6.6855 L 37.498462,874.27177 c -1.7264,2.742 -2.6424,5.91613 -2.6424,9.15625 z M 188.60286,1384.1307 c 54.2125,-5.6515 107.9065,-15.489 160.6012,-29.4246 9.1755,-2.4267 14.6468,-11.832 12.2202,-21.0077 -0.6425,-2.4277 -1.8083,-4.6851 -3.4168,-6.6136 L 65.238262,976.0704 c -6.0792,-7.28863 -16.9159,-8.269 -24.2045,-2.18988 -3.9147,3.26513 -6.1777,8.09963 -6.1777,13.19725 l 0,335.24433 c 0,9.4911 7.6939,17.1851 17.185,17.1851 0.4838,0 0.9675,-0.025 1.4494,-0.062 l 10.4264,-0.8813 c 2.3767,-0.2012 4.7704,-0.038 7.0984,0.48 3.4258,0.765 7.0038,0.4613 10.2525,-0.8675 2.2075,-0.9037 4.5398,-1.4656 6.9166,-1.6667 l 23.737998,-2.0093 c 12.8306,-1.0862 24.1122,8.4348 25.1982,21.2654 l 1.3395,15.8241 c 0.8,9.4573 9.116,16.4749 18.5733,15.6744 0.05,-0.01 0.1125,-0.01 0.165,-0.013 10.473,-0.9887 20.9415,-2.028 31.4046,-3.1192 z m 429.4152,-179.9916 c -6.4696,-11.1332 -2.6891,-25.4032 8.444,-31.8729 l 20.5975,-11.9696 c 2.0624,-1.1988 4.2952,-2.0759 6.6218,-2.602 3.4237,-0.7738 6.5282,-2.5783 8.896,-5.1697 1.609,-1.7608 3.4769,-3.2665 5.5392,-4.465 l 9.0469,-5.2573 c 8.2061,-4.7687 10.9926,-15.2868 6.2239,-23.4929 -0.2438,-0.4188 -0.5038,-0.8263 -0.7813,-1.2225 l -192.288,-274.6158 c -5.4438,-7.7745 -16.1595,-9.664 -23.9341,-4.22013 -4.1756,2.92375 -6.8379,7.5505 -7.267,12.63 l -38.489,455.45983 c -0.7987,9.4573 6.2196,17.7718 15.6769,18.5711 2.5022,0.2112 5.0204,-0.1275 7.3774,-0.995 51.1581,-18.8089 100.7842,-41.5479 148.4338,-68.0135 9.1965,-5.108 18.3679,-10.261 27.5139,-15.4589 8.2515,-4.6896 11.139,-15.1804 6.4495,-23.432 -0.025,-0.05 -0.05,-0.1 -0.088,-0.1437 z M 47.832262,1419.7946 c -20.4933,0 -37.1064,-16.6132 -37.1064,-37.1064 l 0,-1049.54692 c 0,-22.28875 10.8732,-43.176 29.1311,-55.96037 30.906,-21.64063 73.503498,-14.1295 95.144098,16.7765 l 601.9957,859.73849 c 0.4262,0.61 0.835,1.2325 1.225,1.8673 10.7231,17.4639 5.2587,40.3141 -12.2053,51.0372 -40.2035,24.6858 -80.9414,48.4908 -122.1844,71.3979 -127.3961,70.7583 -267.7857,115.023 -412.7278,130.1326 -46.9233,4.8917 -93.947698,8.758 -141.039798,11.5988 -0.7437,0.038 -1.4875,0.062 -2.2325,0.062 z m 31.2086,-1065.68832 c 11.5786,0 20.964998,-9.38637 20.964998,-20.965 0,-11.57875 -9.386398,-20.965 -20.964998,-20.965 -11.5788,0 -20.9651,9.38625 -20.9651,20.965 0,11.57863 9.3863,20.965 20.9651,20.965 z m 569.720698,854.91162 -9.4712,-16.2982 19.3414,-11.2396 9.4712,16.2982 z m 41.5014,-24.1172 19.3414,-11.2396 -9.4713,-16.2983 -19.3413,11.2396 z m -624.946698,177.7604 -22.2904,1.8868 1.5899,18.7832 22.2903,-1.8868 z m 49.418798,14.7348 -22.290298,1.8868 -1.5899,-18.7833 22.290398,-1.8867 z m 48.9904,-807.01299 -17.978,5.6685 12.8626,40.795 17.9779,-5.6685 z m -26.7055,-84.69888 -17.978,5.66838 12.8626,40.795 17.978,-5.66838 z M 59.490962,373.77816 c -8.5527,-4.11463 -18.8217,-0.51625 -22.9362,8.036 -1.1188,2.32437 -1.6989,4.87075 -1.6989,7.45012 l 0,384.36888 c 0,9.49112 7.6939,17.18512 17.185,17.18512 5.9049,0 11.3962,-3.03175 14.5425,-8.02862 L 145.63956,657.22903 c 4.469,-7.09775 3.1613,-16.38487 -3.094,-21.97262 -3.1268,-2.79325 -5.4427,-6.378 -6.7035,-10.37688 l -13.2995,-42.1805 c -1.3816,-4.38175 -1.448,-9.07262 -0.1912,-13.49175 1.8797,-6.60762 -0.3563,-13.69975 -5.6861,-18.03425 -3.5644,-2.899 -6.2007,-6.7795 -7.5822,-11.16137 l -13.299498,-42.1805 c -1.807,-5.731 -1.3315,-11.93838 1.3274,-17.32713 1.9599,-3.972 2.3104,-8.54737 0.9788,-12.77162 l -25.84,-81.9535 c -1.548,-4.9095 -5.2154,-8.86663 -9.9934,-10.783 -0.935,-0.37375 -1.858,-0.78125 -2.7655,-1.2175 z m 83.839398,443.58462 0,9 -20.4804,0 0,46.03462 20.4804,0 0,42.77475 -20.4804,0 0,46.03462 20.4804,0 0,9 230.6692,0 0,-9 20.4804,0 0,-46.03462 -20.4804,0 0,-42.77475 20.4804,0 0,-46.03462 -20.4804,0 0,-9 z" /><path
       inkscape:connector-curvature="0"
       id="path8502-8"
       style="fill:none;stroke:#00a334;stroke-width:14.1732235;stroke-linecap:round;stroke-linejoin:round;stroke-miterlimit:10;stroke-dasharray:none;stroke-opacity:1"
       d="m 1697.6069,75.897244 c 1.0863,12.83063 12.3677,22.351496 25.1983,21.265376 l 23.738,-2.00925 c 2.3767,-0.20125 4.7091,-0.76375 6.9166,-1.666626 3.2488,-1.32962 6.8266,-1.63237 10.2525,-0.8675 2.328,0.52 4.7216,0.68125 7.0984,0.48 l 10.4264,-0.8825 c 9.4572,-0.8 17.7727,6.217126 18.5732,15.674366 0.037,0.4825 0.062,0.96625 0.062,1.44938 l -6e-4,335.24397 c 0,9.49113 -7.694,17.18513 -17.1851,17.18513 -5.0975,0 -9.932,-2.26313 -13.1972,-6.17775 L 1476.7196,104.57749 c -6.0793,-7.28862 -5.0988,-18.125366 2.1898,-24.204496 1.9284,-1.60837 4.1859,-2.77475 6.6135,-3.41675 52.6948,-13.93562 106.3888,-23.77325 160.6013,-29.42462 10.4631,-1.09125 20.9316,-2.13013 31.4049,-3.11825 9.4491,-0.89125 17.8317,6.046 18.7231,15.49512 0.01,0.05 0.01,0.1125 0.013,0.165 z m 5.2158,823.617996 12.8626,40.795 -17.978,5.6683 -12.8626,-40.795 z m -13.8429,-43.90404 -17.978,5.6685 -12.8625,-40.795 17.9779,-5.6685 z m -40.7992,13.53275 c 1.3816,4.38188 4.0177,8.26238 7.5822,11.16125 5.3296,4.33463 7.5658,11.42675 5.6861,18.03434 -1.257,4.4192 -1.1912,9.1099 0.1913,13.4918 l 13.2992,42.1805 c 1.807,5.731 5.7569,10.543 11.0258,13.4322 3.8836,2.1297 6.7951,5.6764 8.127,9.9007 l 25.8399,81.95346 c 1.548,4.9096 0.8137,10.2545 -2.0014,14.5646 -0.55,0.8437 -1.0725,1.7052 -1.5668,2.584 -4.646,8.2761 -15.1213,11.219 -23.3976,6.573 -2.2492,-1.2626 -4.1854,-3.0154 -5.6649,-5.1284 L 1466.8366,763.03496 c -5.4439,-7.77462 -3.5544,-18.49025 4.2201,-23.93412 4.8371,-3.38688 11.0742,-4.05325 16.5177,-1.76463 l 136.7777,57.50838 c 7.7318,3.251 11.9875,11.6085 10.0685,19.77361 -0.96,4.08163 -0.8,8.34638 0.46,12.34525 z M 1242.6113,174.75886 c 47.6498,-26.46562 97.2759,-49.20475 148.434,-68.01375 8.9081,-3.27524 18.7845,1.29113 22.0598,10.19913 0.8662,2.357 1.2062,4.87512 0.995,7.37737 l -38.4893,455.45973 c -0.7987,9.45725 -9.1137,16.47612 -18.571,15.67687 -5.0795,-0.42875 -9.7062,-3.09137 -12.6301,-7.26712 l -192.288,-274.61575 c -5.4439,-7.77463 -3.5544,-18.49025 4.2202,-23.93413 0.3963,-0.2775 0.8038,-0.5375 1.2225,-0.78125 l 9.0468,-5.25725 c 2.0624,-1.19875 3.9302,-2.70412 5.5392,-4.465 2.3678,-2.59137 5.4723,-4.3955 8.896,-5.16975 2.3267,-0.52625 4.5594,-1.4035 6.6218,-2.602 l 20.5975,-11.96962 c 11.1331,-6.46963 14.9136,-20.73963 8.4439,-31.87275 l -7.9792,-13.7306 c -4.7687,-8.20613 -1.9822,-18.72425 6.2239,-23.49288 0.05,-0.025 0.1,-0.05 0.1438,-0.0875 9.1457,-5.19525 18.3171,-10.34825 27.5137,-15.45625 z m 581.3901,923.76244 c 0,37.7292 -30.5856,68.315 -68.315,68.315 -22.2887,0 -43.176,-10.8733 -55.9602,-29.1311 L 1097.7308,277.96671 c -11.7545,-16.78712 -7.6747,-39.92462 9.1124,-51.67912 0.61,-0.4275 1.2325,-0.83625 1.8674,-1.225 40.2036,-24.6861 80.9413,-48.4911 122.1843,-71.3981 127.3962,-70.758246 267.7858,-115.022996 412.7279,-130.132616 46.9233,-4.89163 93.9478,-8.758 141.0398,-11.59638 20.4561,-1.2325 38.0386,14.3505 39.2716,34.80663 0.05,0.74375 0.062,1.48787 0.062,2.2325 z m -80.129,-1027.358056 -22.2903,1.88675 -1.5899,-18.78325 22.2904,-1.88675 z m 28.5984,985.503056 c -4.778,-1.916 -8.4454,-5.8731 -9.9934,-10.7828 l -25.8398,-81.95346 c -1.3319,-4.2241 -0.9813,-8.7995 0.9787,-12.7715 2.6588,-5.3888 3.1343,-11.5962 1.3273,-17.3271 l -13.2995,-42.18049 c -1.3815,-4.38187 -4.0178,-8.26237 -7.5822,-11.16137 -5.3296,-4.3345 -7.5658,-11.42663 -5.6862,-18.03425 1.2571,-4.41925 1.1912,-9.11 -0.1913,-13.49188 l -13.2992,-42.18049 c -1.2609,-3.99875 -3.5768,-7.58362 -6.7036,-10.37687 -6.2553,-5.58775 -7.563,-14.87475 -3.094,-21.97263 l 79.0562,-125.5605 c 5.0569,-8.03162 15.6673,-10.44312 23.6989,-5.38612 4.997,3.14625 8.0287,8.63762 8.0287,14.5425 l 0,384.36886 c 0,9.4911 -7.694,17.1851 -17.1851,17.1851 -2.5794,0 -5.1257,-0.5813 -7.4501,-1.6993 -0.9075,-0.4362 -1.8305,-0.8425 -2.7655,-1.2175 z m -637.8766,-782.36646 -9.4713,-16.29825 19.3414,-11.23975 9.4713,16.29825 z m 621.0922,845.18646 c -11.5786,0 -20.965,-9.3864 -20.965,-20.965 0,-11.5788 9.3864,-20.965 20.965,-20.965 11.5788,0 20.9652,9.3862 20.9652,20.965 0,11.5786 -9.3864,20.965 -20.9652,20.965 z m 34.4252,-1071.154806 1.5898,18.78325 -22.2903,1.88675 -1.5899,-18.78325 z m -614.016,201.851096 -9.4713,-16.29825 19.3414,-11.23973 9.4712,16.29823 z m 254.8425,388.08162 20.4803,0 0,9 230.6693,0 0,-9 20.4804,0 0,-25.62987 -20.4804,0 0,-22.37013 20.4804,0 0,-25.62987 -20.4804,0 0,-9 -230.6693,0 0,9 -20.4803,0 0,25.62987 20.4803,0 0,22.37013 -20.4803,0 z m 0,-147 0,-25.62987 20.4803,0 0,-9 230.6693,0 0,9 20.4804,0 0,25.62987 -20.4804,0 0,22.37013 20.4804,0 0,25.62987 -20.4804,0 0,9 -230.6693,0 0,-9 -20.4803,0 0,-25.62987 20.4803,0 0,-22.37013 z m -37.1893,160.43813 43.2011,-511.22085 c 0.7988,-9.45738 9.1138,-16.47613 18.571,-15.677 4.5768,0.38625 8.8083,2.58962 11.7502,6.11675 l 328.6125,393.98847 c 2.5767,3.08925 3.988,6.98463 3.988,11.00738 l 0,12.31737 c 0,3.24013 -0.9163,6.41438 -2.6425,9.15638 l -133.6013,212.19112 c -4.4802,7.11575 -13.4517,9.9445 -21.2032,6.68538 l -231.1475,-97.18638 c -2.9869,-1.25587 -5.558,-3.3305 -7.4165,-5.98475 l -7.0649,-10.08987 c -2.3074,-3.29525 -3.3856,-7.2955 -3.0469,-11.304 z" /><path
       inkscape:connector-curvature="0"
       id="path7814-9"
       style="fill:none;stroke:#19cd00;stroke-width:14.1732235;stroke-linecap:round;stroke-linejoin:round;stroke-miterlimit:10;stroke-dasharray:none;stroke-opacity:1"
       d="m 1124.0638,619.12946 136.7776,57.5085 c 8.7492,3.67863 18.8238,-0.4325 22.5024,-9.181 2.2886,-5.44337 1.6224,-11.68062 -1.7646,-16.51762 L 1061.1143,336.08271 c -5.4439,-7.7745 -16.1595,-9.664 -23.9341,-4.22012 -2.1129,1.47937 -3.8658,3.41562 -5.1284,5.66487 -0.4925,0.87875 -1.015,1.74025 -1.5666,2.584 -2.815,4.31 -3.5495,9.655 -2.0015,14.56463 l 25.8399,81.9535 c 1.3318,4.22412 4.2432,7.771 8.127,9.90062 5.2688,2.88925 9.2187,7.70125 11.0257,13.43225 l 13.2995,42.1805 c 1.3816,4.38175 1.4479,9.07263 0.1913,13.49175 -1.8799,6.60763 0.3562,13.69975 5.6858,18.03425 3.5645,2.899 6.2007,6.7795 7.5823,11.16138 l 13.2995,42.1805 c 1.2607,3.99875 1.42,8.26362 0.4612,12.345 -1.9191,8.165 2.3365,16.5225 10.0683,19.77362 z M 948.54439,878.05695 c 0,4.023 1.4112,7.91825 3.9879,11.00738 l 328.61251,393.98847 c 6.0791,7.2887 16.9159,8.2692 24.2045,2.19 3.5271,-2.9419 5.7299,-7.1733 6.1166,-11.75 l 43.2012,-511.22096 c 0.3387,-4.00838 -0.74,-8.00875 -3.0469,-11.304 l -7.0649,-10.09 c -1.8585,-2.65438 -4.4296,-4.72913 -7.4165,-5.98488 l -231.1475,-97.18625 c -7.7515,-3.25925 -16.723,-0.43 -21.2032,6.6855 L 951.18679,856.58345 c -1.7264,2.742 -2.6424,5.91613 -2.6424,9.15625 z m 153.74681,488.38535 c 54.2125,-5.6515 107.9065,-15.489 160.6012,-29.4246 9.1755,-2.4267 14.6468,-11.832 12.2202,-21.0077 -0.6425,-2.4277 -1.8083,-4.6851 -3.4168,-6.6136 L 978.92659,958.38204 c -6.0792,-7.2886 -16.9159,-8.269 -24.2045,-2.1898 -3.9147,3.2651 -6.1777,8.0996 -6.1777,13.1972 l 0,335.24426 c 0,9.4911 7.6939,17.1851 17.185,17.1851 0.4838,0 0.9675,-0.025 1.4494,-0.062 l 10.4264,-0.8813 c 2.3767,-0.2012 4.7704,-0.038 7.0984,0.48 3.4258,0.765 7.0038,0.4613 10.2525,-0.8675 2.2075,-0.9037 4.53981,-1.4656 6.91661,-1.6667 l 23.738,-2.0093 c 12.8306,-1.0862 24.1122,8.4348 25.1982,21.2654 l 1.3395,15.8241 c 0.8,9.4573 9.116,16.4749 18.5733,15.6744 0.05,-0.01 0.1125,-0.01 0.165,-0.013 10.473,-0.9887 20.9415,-2.028 31.4046,-3.1192 z m 429.4152,-179.9916 c -6.4696,-11.1332 -2.6891,-25.4032 8.444,-31.8729 l 20.5975,-11.9696 c 2.0624,-1.1988 4.2952,-2.0759 6.6218,-2.602 3.4237,-0.7738 6.5282,-2.5783 8.896,-5.1697 1.609,-1.7608 3.4769,-3.2665 5.5392,-4.465 l 9.0469,-5.2573 c 8.2061,-4.7687 10.9926,-15.2868 6.2239,-23.4929 -0.2438,-0.4188 -0.5038,-0.8263 -0.7813,-1.2225 l -192.288,-274.61572 c -5.4438,-7.7745 -16.1595,-9.664 -23.9341,-4.22013 -4.1756,2.92375 -6.8379,7.5505 -7.267,12.63 l -38.489,455.45975 c -0.7987,9.4573 6.2196,17.7718 15.6769,18.5711 2.5022,0.2112 5.0204,-0.1275 7.3774,-0.995 51.1581,-18.8089 100.7842,-41.5479 148.4338,-68.0135 9.1965,-5.108 18.3679,-10.261 27.5139,-15.4589 8.2515,-4.6896 11.139,-15.1804 6.4495,-23.432 -0.025,-0.05 -0.05,-0.1 -0.088,-0.1437 z m -570.18581,215.6555 c -20.4933,0 -37.1064,-16.6132 -37.1064,-37.1064 l 0,-1049.54684 c 0,-22.28875 10.8732,-43.176 29.1311,-55.96037 30.906,-21.64063 73.50351,-14.1295 95.14411,16.7765 l 601.9957,859.73841 c 0.4262,0.61 0.835,1.2325 1.225,1.8673 10.7231,17.4639 5.2587,40.3141 -12.2053,51.0372 -40.2035,24.6858 -80.9414,48.4908 -122.1844,71.3979 -127.3961,70.7583 -267.7857,115.023 -412.7278,130.1326 -46.9233,4.8917 -93.9477,8.758 -141.03981,11.5988 -0.7437,0.038 -1.4875,0.062 -2.2325,0.062 z m 31.2086,-1065.68824 c 11.57861,0 20.96501,-9.38637 20.96501,-20.965 0,-11.57875 -9.3864,-20.965 -20.96501,-20.965 -11.5788,0 -20.9651,9.38625 -20.9651,20.965 0,11.57863 9.3863,20.965 20.9651,20.965 z m 569.72071,854.91154 -9.4712,-16.2982 19.3414,-11.2396 9.4712,16.2982 z m 41.5014,-24.1172 19.3414,-11.2396 -9.4713,-16.2983 -19.3413,11.2396 z m -624.94671,177.7604 -22.2904,1.8868 1.5899,18.7832 22.2903,-1.8868 z m 49.41881,14.7348 -22.2903,1.8868 -1.5899,-18.7833 22.2904,-1.8867 z m 48.9904,-807.01291 -17.978,5.6685 12.8626,40.795 17.9779,-5.6685 z m -26.7055,-84.69888 -17.978,5.66838 12.8626,40.795 17.978,-5.66838 z M 973.17929,356.08984 c -8.5527,-4.11463 -18.8217,-0.51625 -22.9362,8.036 -1.1188,2.32437 -1.6989,4.87075 -1.6989,7.45012 l 0,384.36888 c 0,9.49112 7.6939,17.18512 17.185,17.18512 5.9049,0 11.3962,-3.03175 14.5425,-8.02862 l 79.05621,-125.56063 c 4.469,-7.09775 3.1613,-16.38487 -3.094,-21.97262 -3.1268,-2.79325 -5.4427,-6.378 -6.7035,-10.37688 l -13.2995,-42.1805 c -1.3816,-4.38175 -1.448,-9.07262 -0.1912,-13.49175 1.8797,-6.60762 -0.3563,-13.69975 -5.6861,-18.03425 -3.5644,-2.899 -6.2007,-6.7795 -7.5822,-11.16137 l -13.2995,-42.1805 c -1.807,-5.731 -1.3315,-11.93838 1.3274,-17.32713 1.9599,-3.972 2.3104,-8.54737 0.9788,-12.77162 l -25.84001,-81.9535 c -1.548,-4.9095 -5.2154,-8.86663 -9.9934,-10.783 -0.935,-0.37375 -1.858,-0.78125 -2.7655,-1.2175 z m 83.83941,443.58462 0,9 -20.4804,0 0,46.03462 20.4804,0 0,42.77475 -20.4804,0 0,46.03461 20.4804,0 0,9 230.6692,0 0,-9 20.4804,0 0,-46.03461 -20.4804,0 0,-42.77475 20.4804,0 0,-46.03462 -20.4804,0 0,-9 z" /></g><g
     inkscape:groupmode="layer"
     id="layer2"
     inkscape:label="Locked"
     sodipodi:insensitive="true"
     style="display:inline"><path
       transform="matrix(12.5,0,0,-12.5,-6271.5729,8397.4884)"
       id="path6882"
       style="display:inline;fill:none;stroke:#0000b6;stroke-width:0.56;stroke-linecap:round;stroke-linejoin:round;stroke-miterlimit:10;stroke-dasharray:none;stroke-opacity:1"
       d="m 506.90708,661.97077 c -0.99411,0 -1.8,0.80588 -1.8,1.79999 0,0.99411 0.80589,1.8 1.8,1.8 0.99411,0 1.8,-0.80589 1.8,-1.8 0,-0.99411 -0.80589,-1.79999 -1.8,-1.79999 z m 0,-1.44 c -1.7894,0 -3.24,1.4506 -3.24,3.23999 0,1.7894 1.4506,3.24 3.24,3.24 1.7894,0 3.24,-1.4506 3.24,-3.24 0,-1.78939 -1.4506,-3.23999 -3.24,-3.23999 z"
       inkscape:connector-curvature="0" /><path
       transform="matrix(12.5,0,0,-12.5,-6271.5729,8397.4884)"
       id="path8421"
       style="display:inline;fill:none;stroke:#ff00ef;stroke-width:1.13385785;stroke-linecap:round;stroke-linejoin:round;stroke-miterlimit:10;stroke-dasharray:none;stroke-opacity:1"
       d="m 510.79596,653.1881 c -1.75759,0 -3.1824,1.42481 -3.1824,3.1824 0,1.75759 1.42481,3.1824 3.1824,3.1824 1.75759,0 3.1824,-1.42481 3.1824,-3.1824 0,-1.75759 -1.42481,-3.1824 -3.1824,-3.1824 z m 0,1.44 c -0.9623,0 -1.7424,0.7801 -1.7424,1.7424 0,0.9623 0.7801,1.7424 1.7424,1.7424 0.9623,0 1.7424,-0.7801 1.7424,-1.7424 0,-0.9623 -0.7801,-1.7424 -1.7424,-1.7424 z"
       inkscape:connector-curvature="0" /><path
       transform="matrix(12.5,0,0,-12.5,-6271.5729,8397.4884)"
       inkscape:connector-curvature="0"
       style="display:inline;fill:none;stroke:#a20000;stroke-width:0.56;stroke-linecap:round;stroke-linejoin:round;stroke-miterlimit:10;stroke-dasharray:none;stroke-opacity:1"
       d="m 526.68157,663.4306 -2.96504,0 0,-2.96503 2.96504,0 z"
       id="path5754" /></g></svg>