<?xml version="1.0" encoding="UTF-8" standalone="no"?>
<!-- Created with Inkscape (http://www.inkscape.org/) -->

<svg
   xmlns:dc="http://purl.org/dc/elements/1.1/"
   xmlns:cc="http://creativecommons.org/ns#"
   xmlns:rdf="http://www.w3.org/1999/02/22-rdf-syntax-ns#"
   xmlns:svg="http://www.w3.org/2000/svg"
   xmlns="http://www.w3.org/2000/svg"
   xmlns:sodipodi="http://sodipodi.sourceforge.net/DTD/sodipodi-0.dtd"
   xmlns:inkscape="http://www.inkscape.org/namespaces/inkscape"
   id="svg8574"
   version="1.1"
   inkscape:version="0.91 r13725"
   xml:space="preserve"
   width="24in"
   height="16in"
   viewBox="0 0 2160 1440"
   sodipodi:docname="rocker-cut3.svg"><metadata
     id="metadata8580"><rdf:RDF><cc:Work
         rdf:about=""><dc:format>image/svg+xml</dc:format><dc:type
           rdf:resource="http://purl.org/dc/dcmitype/StillImage" /><dc:title></dc:title></cc:Work></rdf:RDF></metadata><defs
     id="defs8578"><clipPath
       clipPathUnits="userSpaceOnUse"
       id="clipPath8588"><path
         d="m 0,0 1224,0 0,792 L 0,792 0,0 Z"
         id="path8590"
         inkscape:connector-curvature="0" /></clipPath></defs><sodipodi:namedview
     pagecolor="#ffffff"
     bordercolor="#666666"
     borderopacity="1"
     objecttolerance="10"
     gridtolerance="10"
     guidetolerance="10"
     inkscape:pageopacity="0"
     inkscape:pageshadow="2"
     inkscape:window-width="1920"
     inkscape:window-height="1016"
     id="namedview8576"
     showgrid="false"
     inkscape:zoom="0.45098039"
     inkscape:cx="1063.1143"
     inkscape:cy="780.48763"
     inkscape:window-x="0"
     inkscape:window-y="27"
     inkscape:window-maximized="1"
     inkscape:current-layer="g8586"
     units="in" /><g
     id="g8582"
     inkscape:groupmode="layer"
     inkscape:label="Drawing 2 (1)"
     transform="matrix(1.25,0,0,-1.25,0,1440)"><g
       id="g8584"
       transform="matrix(10,0,0,10,-4080.0648,-4428.2264)"><g
         id="g8586"
         clip-path="url(#clipPath8588)"><path
           style="fill:none;stroke:#000000;stroke-width:0.40000001;stroke-linecap:round;stroke-linejoin:round;stroke-miterlimit:10;stroke-dasharray:none;stroke-opacity:1"
           d="m 511.64727,498.52769 0,-1.6344 -10.73889,0 0,1.6344 -10.96566,0 0,-1.6344 -10.73889,0 0,1.6344 -10.96566,0 0,-4.31098 2.69611,0 0,-4.08422 -2.69611,0 0,-5.95258 11.66719,0 0,1.6416 10.56351,0 0,-1.6416 10.79028,0 0,1.6416 10.5635,0 0,-1.6416 10.79028,0 0,14.34778 z"
           id="path9753"
           inkscape:connector-curvature="0" /><path
           style="fill:none;stroke:#000000;stroke-width:0.40000001;stroke-linecap:round;stroke-linejoin:round;stroke-miterlimit:10;stroke-dasharray:none;stroke-opacity:1"
           d="m 529.9627,484.17991 0,1.6344 6.51639,0 0,-1.6344 6.74315,0 0,1.6344 6.51639,0 0,-1.6344 6.74316,0 0,4.31098 -3.12158,0 0,4.08422 3.12158,0 0,5.95258 -7.43959,0 0,-1.6416 -6.34228,0 0,1.6416 -6.56905,0 0,-1.6416 -6.34228,0 0,1.6416 -6.56905,0 0,-14.34778 z"
           id="path9751"
           inkscape:connector-curvature="0" /><path
           style="fill:none;stroke:#000000;stroke-width:0.40000001;stroke-linecap:round;stroke-linejoin:round;stroke-miterlimit:10;stroke-dasharray:none;stroke-opacity:1"
           d="m 424.22246,498.52769 -10.96566,0 0,-4.31098 2.6961,0 0,-4.08422 -2.6961,0 0,-5.95258 11.66719,0 0,1.6416 10.5635,0 0,-1.6416 10.79028,0 0,1.6416 10.56351,0 0,-1.6416 10.79028,0 0,14.34778 -10.96566,0 0,-1.6344 -10.73889,0 0,1.6344 -10.96566,0 0,-1.6344 -10.73889,0 z"
           id="path9749"
           inkscape:connector-curvature="0" /><path
           id="path9745"
           style="fill:none;stroke:#000000;stroke-width:0.40000001;stroke-linecap:round;stroke-linejoin:round;stroke-miterlimit:10;stroke-dasharray:none;stroke-opacity:1"
           d="m 437.6389,541.50977 -6.97861,-8.22977 -1.25205,1.0617 -6.83195,-8.05681 1.25206,-1.0617 -6.97861,-8.22977 -1.25205,1.0617 -5.7165,-6.74137 0,31.0415 5.8297,2.7248 -0.69511,1.48717 5.95109,2.78155 0.6951,-1.48718 5.74565,2.68553 -0.6951,1.48717 5.95108,2.78154 0.69511,-1.48717 5.74565,2.68552 -0.5955,1.27406 c 0.99864,0.14331 2.01746,0.007 2.94328,-0.39391 2.76549,-1.19744 4.03673,-4.41007 2.83929,-7.17561 l -1.07264,0.90956 -6.83194,-8.05681 z m 1.64508,11.23842 c -0.47569,0 -0.86131,-0.38562 -0.86131,-0.86131 0,-0.47568 0.38562,-0.8613 0.86131,-0.8613 0.47568,0 0.8613,0.38562 0.8613,0.8613 0,0.47569 -0.38562,0.86131 -0.8613,0.86131 z"
           inkscape:connector-curvature="0" /><path
           style="fill:none;stroke:#000000;stroke-width:0.40000001;stroke-linecap:round;stroke-linejoin:round;stroke-miterlimit:10;stroke-dasharray:none;stroke-opacity:1"
           d="m 323.14202,533.01605 0,5.95258 3.12157,0 0,4.08422 -3.12157,0 0,4.31098 6.74315,0 0,-1.6344 6.51639,0 0,1.6344 6.74316,0 0,-1.6344 6.51638,0 0,1.6344 6.74316,0 0,-14.34778 -6.56905,0 0,1.6416 -6.34228,0 0,-1.6416 -6.56905,0 0,1.6416 -6.34228,0 0,-1.6416 z"
           id="path9743"
           inkscape:connector-curvature="0" /><path
           style="fill:none;stroke:#000000;stroke-width:0.40000001;stroke-linecap:round;stroke-linejoin:round;stroke-miterlimit:10;stroke-dasharray:none;stroke-opacity:1"
           d="m 473.67088,301.56446 0,-4.1976 -3.12157,0 0,-4.1976 -13.30576,0 0,1.6344 -13.30576,0 0,-1.6344 -13.30577,0 0,1.6344 -13.30576,0 0,-1.6344 -13.30576,0 0,1.6344 -13.30576,0 0,-1.6344 -13.30576,0 0,4.1976 -3.12157,0 0,4.1976 3.12157,0 0,4.1976 10.63438,0 0,-2.53797 13.02918,0 0,2.53797 45.81321,0 0,-2.53797 13.02917,0 0,2.53797 10.63439,0 0,-4.1976 z"
           id="path9741"
           inkscape:connector-curvature="0" /><path
           id="path9737"
           style="fill:none;stroke:#000000;stroke-width:0.40000001;stroke-linecap:round;stroke-linejoin:round;stroke-miterlimit:10;stroke-dasharray:none;stroke-opacity:1"
           d="m 548.46817,552.29968 c 0.47568,0.003 0.86411,-0.3793 0.8676,-0.85497 0.003,-0.47567 -0.37929,-0.86411 -0.85497,-0.8676 -0.47568,-0.003 -0.86411,0.3793 -0.8676,0.85497 -0.003,0.47567 0.37929,0.86411 0.85497,0.8676 z m 29.7058,-41.21774 -5.76577,6.69928 -1.24423,-1.07086 -7.03876,8.17838 1.24423,1.07086 -6.89083,8.0065 -1.24424,-1.07086 -7.03877,8.17838 1.24424,1.07085 -6.89084,8.0065 -1.06593,-0.9174 c -1.21769,2.75669 0.03,5.97855 2.7866,7.19624 0.92284,0.40765 1.94064,0.55146 2.94031,0.41548 l -0.58614,-1.27839 5.76518,-2.64332 0.68418,1.49223 5.97133,-2.73783 -0.68419,-1.49223 5.76519,-2.64333 0.68418,1.49224 5.97132,-2.73784 -0.68418,-1.49223 5.84951,-2.68198 z"
           inkscape:connector-curvature="0" /><path
           style="fill:none;stroke:#000000;stroke-width:0.40000001;stroke-linecap:round;stroke-linejoin:round;stroke-miterlimit:10;stroke-dasharray:none;stroke-opacity:1"
           d="m 544.40401,508.82265 -2.69611,0 0,4.1976 -92.58282,0 0,-4.1976 -2.6961,0 0,-4.31098 2.6961,0 0,-2.5632 18.49389,0 0,-1.6344 18.60727,0 0,1.6344 18.3805,0 0,-1.6344 18.60728,0 0,1.6344 18.49388,0 0,2.5632 2.69611,0 z"
           id="path9735"
           inkscape:connector-curvature="0" /><path
           id="path9158"
           style="fill:none;stroke:#000000;stroke-width:0.40000001;stroke-linecap:round;stroke-linejoin:round;stroke-miterlimit:10;stroke-dasharray:none;stroke-opacity:1"
           d="m 466.12327,549.60568 0,-1.52822 18.3805,0 0,1.52822 z m -30.92862,-40.13435 -0.69205,1.48065 -5.90338,-2.75925 0.69206,-1.48065 -6.10882,-2.85526 -0.69205,1.48064 -5.90338,-2.75924 0.5955,-1.27406 c -0.99864,-0.14331 -2.01747,-0.007 -2.94328,0.39391 -2.76549,1.19744 -4.03673,4.41007 -2.83929,7.17561 l 1.07263,-0.90956 6.94538,8.19057 -1.24657,1.05705 7.09204,8.36354 1.24656,-1.05705 6.94538,8.19057 -1.24656,1.05705 7.09203,8.36353 1.24656,-1.05704 6.94538,8.19057 -1.16558,0.98837 -0.62707,-0.73949 0,3.7455 c 0,1.18331 0.95926,2.14257 2.14257,2.14257 l 91.9294,0 c 1.18331,0 2.14257,-0.95926 2.14257,-2.14257 l 0,-3.7455 -0.62707,0.73949 -1.16558,-0.98837 6.94538,-8.19057 1.24656,1.05704 7.09204,-8.36353 -1.24656,-1.05705 6.94537,-8.19057 1.24656,1.05705 7.09204,-8.36354 -1.24656,-1.05705 6.94537,-8.19057 1.07263,0.90956 c 1.19745,-2.76554 -0.0738,-5.97817 -2.83929,-7.17561 -0.92581,-0.40087 -1.94463,-0.53722 -2.94328,-0.39391 l 0.5955,1.27406 -5.90338,2.75924 -0.69205,-1.48064 -6.10882,2.85526 0.69206,1.48065 -5.90338,2.75925 -0.69205,-1.48065 -6.10882,2.85526 0.69206,1.48065 -5.90338,2.75925 -0.77915,-1.66699 0,1.14658 -13.19237,0 0,-1.6344 -13.41915,0 0,1.6344 -13.19238,0 0,-1.6344 -13.41914,0 0,1.6344 -13.19238,0 0,-1.6344 -13.41914,0 0,1.6344 -13.19238,0 0,-1.14658 -0.77915,1.66699 -5.90338,-2.75925 0.69206,-1.48065 z m 29.19157,15.45338 c 0.9628,0 1.74331,0.78051 1.74331,1.74331 0,0.9628 -0.78051,1.74331 -1.74331,1.74331 -0.9628,0 -1.74331,-0.78051 -1.74331,-1.74331 0,-0.9628 0.78051,-1.74331 1.74331,-1.74331 z m 58.84238,0 c 0.9628,0 1.74331,0.78051 1.74331,1.74331 0,0.9628 -0.78051,1.74331 -1.74331,1.74331 -0.9628,0 -1.74331,-0.78051 -1.74331,-1.74331 0,-0.9628 0.78051,-1.74331 1.74331,-1.74331 z m 0,7.92 c 1.36045,0 2.46331,1.10286 2.46331,2.46331 0,1.36044 -1.10286,2.4633 -2.46331,2.4633 -1.36044,0 -2.46331,-1.10286 -2.46331,-2.4633 0,-1.36045 1.10287,-2.46331 2.46331,-2.46331 z m -68.66443,10.48591 c 0.20352,0 0.36851,0.16498 0.36851,0.3685 0,0.20352 -0.16499,0.3685 -0.36851,0.3685 -0.20352,0 -0.3685,-0.16498 -0.3685,-0.3685 0,-0.20352 0.16498,-0.3685 0.3685,-0.3685 z m 21.65669,-17.03111 c 0.20353,0 0.36851,0.16499 0.36851,0.36851 0,0.20352 -0.16498,0.3685 -0.36851,0.3685 -0.20351,0 -0.3685,-0.16498 -0.3685,-0.3685 0,-0.20352 0.16499,-0.36851 0.3685,-0.36851 z m -2.01259,17.03111 c 0.20352,0 0.3685,0.16498 0.3685,0.3685 0,0.20352 -0.16498,0.3685 -0.3685,0.3685 -0.20352,0 -0.36851,-0.16498 -0.36851,-0.3685 0,-0.20352 0.16499,-0.3685 0.36851,-0.3685 z m 58.84238,0 c -0.20352,0 -0.3685,0.16498 -0.3685,0.3685 0,0.20352 0.16498,0.3685 0.3685,0.3685 0.20352,0 0.3685,-0.16498 0.3685,-0.3685 0,-0.20352 -0.16498,-0.3685 -0.3685,-0.3685 z m 2.0126,-17.03111 c -0.20352,0 -0.36851,0.16499 -0.36851,0.36851 0,0.20352 0.16499,0.3685 0.36851,0.3685 0.20352,0 0.3685,-0.16498 0.3685,-0.3685 0,-0.20352 -0.16498,-0.36851 -0.3685,-0.36851 z m -23.66929,0 c -0.20352,0 -0.36851,0.16499 -0.36851,0.36851 0,0.20352 0.16499,0.3685 0.36851,0.3685 0.20352,0 0.3685,-0.16498 0.3685,-0.3685 0,-0.20352 -0.16498,-0.36851 -0.3685,-0.36851 z m 2.01259,17.03111 c -0.20351,0 -0.3685,0.16498 -0.3685,0.3685 0,0.20352 0.16499,0.3685 0.3685,0.3685 0.20352,0 0.36851,-0.16498 0.36851,-0.3685 0,-0.20352 -0.16499,-0.3685 -0.36851,-0.3685 z m -96.99914,-37.48641 c 0.47569,0 0.86131,0.38562 0.86131,0.86131 0,0.47569 -0.38562,0.86131 -0.86131,0.86131 -0.47569,0 -0.86131,-0.38562 -0.86131,-0.86131 0,-0.47569 0.38562,-0.86131 0.86131,-0.86131 z m 154.8,0 c -0.47569,0 -0.86131,0.38562 -0.86131,0.86131 0,0.47569 0.38562,0.86131 0.86131,0.86131 0.47569,0 0.86131,-0.38562 0.86131,-0.86131 0,-0.47569 -0.38562,-0.86131 -0.86131,-0.86131 z m -49.71586,42.23325 0,1.52822 -18.3805,0 0,-1.52822 z m -57.10533,-15.23275 c 1.36045,0 2.46331,1.10286 2.46331,2.46331 0,1.36044 -1.10286,2.4633 -2.46331,2.4633 -1.36045,0 -2.46331,-1.10286 -2.46331,-2.4633 0,-1.36045 1.10286,-2.46331 2.46331,-2.46331 z m -11.83465,-6.5452 c 0.20352,0 0.36851,0.16499 0.36851,0.36851 0,0.20352 -0.16499,0.3685 -0.36851,0.3685 -0.20352,0 -0.3685,-0.16498 -0.3685,-0.3685 0,-0.20352 0.16498,-0.36851 0.3685,-0.36851 z"
           inkscape:connector-curvature="0" /><path
           style="fill:none;fill-rule:evenodd;stroke:#ff0000;stroke-width:0.39897409;stroke-linecap:butt;stroke-linejoin:miter;stroke-miterlimit:4;stroke-dasharray:none;stroke-opacity:1"
           d="m 408.2917,482.55829 172.24695,0"
           id="path9792"
           inkscape:connector-curvature="0" /></g></g></g></svg>