<?xml version="1.0" encoding="UTF-8" standalone="no"?>
<!-- Created with Inkscape (http://www.inkscape.org/) -->

<svg
   xmlns:dc="http://purl.org/dc/elements/1.1/"
   xmlns:cc="http://creativecommons.org/ns#"
   xmlns:rdf="http://www.w3.org/1999/02/22-rdf-syntax-ns#"
   xmlns:svg="http://www.w3.org/2000/svg"
   xmlns="http://www.w3.org/2000/svg"
   xmlns:sodipodi="http://sodipodi.sourceforge.net/DTD/sodipodi-0.dtd"
   xmlns:inkscape="http://www.inkscape.org/namespaces/inkscape"
   width="335.83749mm"
   height="400.40643mm"
   viewBox="0 0 1189.9754 1418.7629"
   id="svg2"
   version="1.1"
   inkscape:version="0.91 r13725"
   sodipodi:docname="rocker-cut1.svg">
  <defs
     id="defs4">
    <marker
       style="overflow:visible"
       refY="0"
       refX="0"
       orient="auto"
       id="DistanceX">
      <path
         id="path4143"
         style="stroke:#000000;stroke-width:0.5"
         d="M 3,-3 -3,3 M 0,-5 0,5"
         inkscape:connector-curvature="0" />
    </marker>
    <pattern
       y="0"
       x="0"
       width="8"
       patternUnits="userSpaceOnUse"
       id="Hatch"
       height="8">
      <path
         id="path4146"
         stroke-width="0.25"
         stroke="#000000"
         linecap="square"
         d="M8 4 l-4,4" />
      <path
         id="path4148"
         stroke-width="0.25"
         stroke="#000000"
         linecap="square"
         d="M6 2 l-4,4" />
      <path
         id="path4150"
         stroke-width="0.25"
         stroke="#000000"
         linecap="square"
         d="M4 0 l-4,4" />
    </pattern>
    <symbol
       id="*Model_Space" />
    <symbol
       id="*Paper_Space" />
    <clipPath
       id="clipPath5217"
       clipPathUnits="userSpaceOnUse">
      <path
         inkscape:connector-curvature="0"
         id="path5219"
         d="m 0,0 1224,0 0,792 L 0,792 0,0 Z" />
    </clipPath>
  </defs>
  <sodipodi:namedview
     id="base"
     pagecolor="#ffffff"
     bordercolor="#666666"
     borderopacity="1.0"
     inkscape:pageopacity="0.0"
     inkscape:pageshadow="2"
     inkscape:zoom="0.35"
     inkscape:cx="-206.75027"
     inkscape:cy="388.46303"
     inkscape:document-units="px"
     inkscape:current-layer="g5215"
     showgrid="false"
     fit-margin-top="0"
     fit-margin-left="0"
     fit-margin-right="0"
     fit-margin-bottom="0"
     inkscape:window-width="1920"
     inkscape:window-height="1016"
     inkscape:window-x="0"
     inkscape:window-y="27"
     inkscape:window-maximized="1" />
  <metadata
     id="metadata7">
    <rdf:RDF>
      <cc:Work
         rdf:about="">
        <dc:format>image/svg+xml</dc:format>
        <dc:type
           rdf:resource="http://purl.org/dc/dcmitype/StillImage" />
        <dc:title></dc:title>
      </cc:Work>
    </rdf:RDF>
  </metadata>
  <g
     inkscape:label="Layer 1"
     inkscape:groupmode="layer"
     id="layer1"
     transform="translate(429.08674,176.15266)">
    <g
       transform="matrix(12.5,0,0,-12.5,-6699.142,8183.8107)"
       inkscape:label="Drawing 1 (8)"
       id="g5211">
      <g
         id="g5213">
        <g
           clip-path="url(#clipPath5217)"
           id="g5215">
          <path
             id="path5895"
             style="fill:none;stroke:#005b00;stroke-width:0.32;stroke-linecap:round;stroke-linejoin:round;stroke-miterlimit:10;stroke-dasharray:none;stroke-opacity:1"
             d="m 530.25255,637.19393 -1.04791,1.25949 1.47596,1.228 1.0479,-1.2595 z m 63.52414,25.79274 -1.91424,-0.14853 -0.12675,1.63352 1.91424,0.14853 z m -3.82849,-0.29706 -0.12675,1.63351 -1.91425,-0.14853 0.12675,-1.63352 z m 0.29935,-83.9333 c -0.99411,0 -1.8,0.80589 -1.8,1.8 0,0.99411 0.80589,1.8 1.8,1.8 0.99411,0 1.8,-0.80589 1.8,-1.8 0,-0.99411 -0.80589,-1.8 -1.8,-1.8 z m -53.9589,69.27886 c 13.08427,10.46273 28.92814,16.89583 45.60272,18.51611 3.75557,0.36493 7.51865,0.64781 11.28657,0.84844 1.60119,0.0852 2.96832,-1.14365 3.05358,-2.74484 0.003,-0.0582 0.004,-0.11644 0.004,-0.17471 l -0.58812,-83.96168 c -0.0209,-2.98227 -2.45543,-5.38294 -5.4377,-5.36205 -1.43213,0.01 -2.80162,0.58857 -3.8072,1.60833 l -58.954,59.78576 c -1.12585,1.14173 -1.11297,2.97996 0.0288,4.1058 0.0415,0.0409 0.0842,0.0806 0.12805,0.11891 2.84122,2.48289 5.73635,4.90345 8.68328,7.25993 z m 58.10884,11.74994 c 0.003,-0.0404 0.005,-0.081 0.004,-0.12149 l -0.19045,-27.20902 c -0.006,-0.79527 -0.65479,-1.43545 -1.45006,-1.42988 -0.35034,0.002 -0.68778,0.13255 -0.94909,0.36592 l -29.83051,26.64048 c -0.59318,0.52974 -0.6446,1.44005 -0.11486,2.03323 0.16306,0.18258 0.36998,0.32058 0.6012,0.40097 6.33908,2.20374 12.91786,3.64534 19.5976,4.29442 0.83786,0.0814 1.67611,0.15871 2.51472,0.2319 0.79228,0.0691 1.4906,-0.51706 1.55975,-1.30934 4e-4,-0.005 7.8e-4,-0.009 0.001,-0.0138 l 0.0984,-1.26666 c 0.0769,-0.99113 0.94272,-1.73226 1.93361,-1.65535 l 1.90012,0.14744 c 0.18389,0.0142 0.3643,0.0564 0.53503,0.12496 0.27275,0.1095 0.57272,0.13277 0.85957,0.0667 0.17974,-0.0414 0.36449,-0.0552 0.54791,-0.0409 l 0.83458,0.0648 c 0.79314,0.0615 1.4858,-0.53141 1.54732,-1.32431 z m -56.9847,-13.15573 c 5.24149,4.19131 10.96309,7.74405 17.04413,10.58327 0.72062,0.33645 1.57754,0.025 1.91399,-0.69559 0.10357,-0.22181 0.14887,-0.46636 0.13164,-0.71055 l -2.81486,-39.8955 c -0.056,-0.79331 -0.74446,-1.39105 -1.53778,-1.33508 -0.34948,0.0247 -0.67799,0.17589 -0.92399,0.42536 l -19.10491,19.37445 c -0.5584,0.56628 -0.55202,1.47802 0.0143,2.03642 0.0289,0.0285 0.0589,0.0557 0.0901,0.0816 l 0.64347,0.5354 c 0.1416,0.11781 0.26443,0.2565 0.36427,0.4113 0.15942,0.24718 0.39072,0.43962 0.66277,0.55142 0.17038,0.07 0.3291,0.16558 0.4707,0.2834 l 1.46506,1.21892 c 0.7642,0.63582 0.86827,1.77075 0.23246,2.53495 l -0.81256,0.97664 c -0.50865,0.61136 -0.42539,1.51931 0.18597,2.02795 0.004,0.003 0.007,0.006 0.0107,0.009 0.65226,0.53206 1.30713,1.06101 1.96458,1.58673 z m 40.24414,-42.80701 c 0.71706,-0.14468 1.21171,-0.80396 1.15009,-1.53287 -0.0239,-0.28232 0.0192,-0.56629 0.12583,-0.8288 l 1.33108,-3.27827 c 0.13348,-0.32875 0.36043,-0.61113 0.65276,-0.81222 0.47427,-0.32625 0.70869,-0.90359 0.59609,-1.4681 -0.0694,-0.34794 -0.0353,-0.70861 0.0982,-1.03735 l 1.3311,-3.27828 c 0.17453,-0.42984 0.50828,-0.7757 0.93163,-0.96544 0.33869,-0.15179 0.60569,-0.42848 0.74531,-0.77234 l 2.55827,-6.30068 c 0.16405,-0.40404 0.13618,-0.86065 -0.0758,-1.24172 -0.0923,-0.16591 -0.17132,-0.33887 -0.23632,-0.51727 -0.27232,-0.74722 -1.09882,-1.13219 -1.84603,-0.85987 -0.20057,0.0731 -0.38237,0.18987 -0.53226,0.34188 l -22.75663,23.07771 c -0.5584,0.56628 -0.55202,1.47801 0.0143,2.03642 0.3409,0.33615 0.82657,0.4809 1.29585,0.38621 z m 16.2561,21.23888 c 0.16229,0.23673 0.24999,0.51649 0.25175,0.80338 l 0.002,0.35438 c 0.003,0.41365 -0.172,0.80858 -0.48054,1.08412 l -32.98512,29.45795 c -0.23767,0.21248 -0.5394,0.33999 -0.85759,0.36239 -0.79332,0.056 -1.48178,-0.54176 -1.53802,-1.33508 l -3.1128,-44.11481 c -0.0291,-0.41264 0.12064,-0.81787 0.41109,-1.11242 l 0.24882,-0.25234 c 0.20145,-0.20428 0.45932,-0.34378 0.74055,-0.40048 l 22.74135,-4.58822 c 0.56678,-0.1143 1.14677,0.12119 1.47302,0.59809 z M 583.78621,603.4314 c -0.10635,0.2625 -0.2734,0.49615 -0.48733,0.68192 -0.55232,0.47962 -0.65729,1.29713 -0.24406,1.90073 l 8.42338,12.30393 c 0.44926,0.65624 1.34545,0.82402 2.00169,0.37476 0.39505,-0.27046 0.62985,-0.71957 0.62649,-1.19831 l -0.22702,-32.40977 c -0.006,-0.79527 -0.65478,-1.43545 -1.45005,-1.42988 -0.21347,0.001 -0.42393,0.0504 -0.61616,0.14327 -0.17097,0.0826 -0.3482,0.1515 -0.53003,0.2061 -0.41764,0.12544 -0.75594,0.43337 -0.91999,0.8374 l -2.55827,6.30068 c -0.13962,0.34388 -0.14108,0.72838 -0.004,1.07331 0.17122,0.43116 0.16939,0.91179 -0.005,1.34163 l -1.33113,3.27827 c -0.13348,0.32875 -0.36042,0.61113 -0.65299,0.81222 -0.47452,0.32625 -0.70893,0.90359 -0.59609,1.4681 0.0696,0.34795 0.0355,0.70861 -0.0982,1.03737 z m -0.33136,-3.96857 -1.33641,3.29141 -1.51806,-0.61638 1.33641,-3.29141 z m -48.77469,41.41508 -1.47571,-1.228 -1.0479,1.2595 1.47571,1.228 z m 50.11111,-44.70649 -1.51783,-0.61639 1.33641,-3.2914 1.51783,0.61639 z m -42.40159,-25.33018 c 0.34186,-0.71808 1.2011,-1.02304 1.91916,-0.68118 6.05953,2.88487 11.75425,6.48052 16.96408,10.71112 0.65347,0.53066 1.30435,1.06451 1.9526,1.60149 0.004,0.003 0.007,0.006 0.0106,0.009 0.60752,0.51323 0.68395,1.42178 0.17072,2.0293 l -0.81988,0.9705 c -0.64154,0.75939 -0.546,1.89508 0.21339,2.53662 l 1.45585,1.22991 c 0.14072,0.11887 0.29872,0.21562 0.46856,0.28692 0.27121,0.11385 0.50104,0.30802 0.6586,0.55639 0.0987,0.15555 0.22046,0.29516 0.36118,0.41403 l 0.6394,0.54021 c 0.031,0.0262 0.0609,0.0536 0.0895,0.0823 0.56212,0.56265 0.56165,1.4744 -10e-4,2.03647 l -19.25005,19.23025 c -0.24786,0.24761 -0.5775,0.3964 -0.92716,0.4184 -0.79372,0.05 -1.4777,-0.55289 -1.52753,-1.34663 l -2.5148,-39.91553 c -0.0156,-0.2443 0.0316,-0.4885 0.13681,-0.70952 z m -29.21578,75.37033 c 0.20111,-0.0716 0.38379,-0.18699 0.535,-0.33788 l 22.92968,-22.90594 c 0.56263,-0.56207 0.5631,-1.47383 9.8e-4,-2.03647 -0.33836,-0.33871 -0.82293,-0.4871 -1.2929,-0.39595 l -14.63828,2.83903 c -0.71812,0.13928 -1.21772,0.79483 -1.16156,1.52418 0.0218,0.28249 -0.0235,0.56612 -0.13204,0.82782 l -1.35569,3.26818 c -0.13595,0.32773 -0.36501,0.6084 -0.65903,0.80729 -0.47691,0.32267 -0.71566,0.89824 -0.60712,1.46357 0.067,0.34846 0.0301,0.70886 -0.10583,1.03659 l -1.35572,3.26817 c -0.17777,0.42852 -0.51412,0.77186 -0.93906,0.95841 -0.33998,0.14925 -0.60906,0.42392 -0.75109,0.76671 l -2.60558,6.28127 c -0.16725,0.40281 -0.14281,0.85961 0.0665,1.24226 0.0912,0.1666 0.1689,0.34015 0.23241,0.51902 0.26651,0.74926 1.09009,1.14044 1.83933,0.87374 z m -8.80755,-45.00296 c 5e-5,0.28688 0.0856,0.56729 0.24587,0.80524 l 12.96118,19.24104 c 0.32292,0.47934 0.90112,0.71919 1.4685,0.60914 l 22.77497,-4.41709 c 0.28165,-0.0546 0.54056,-0.19214 0.74354,-0.39491 l 0.25069,-0.25045 c 0.29264,-0.29236 0.44543,-0.69646 0.41944,-1.10931 l -2.78075,-44.13696 c -0.05,-0.79372 -0.73397,-1.39661 -1.52769,-1.34661 -0.31835,0.0201 -0.62103,0.14525 -0.86054,0.35593 l -33.20592,29.2091 c -0.3106,0.27321 -0.4887,0.66681 -0.4891,1.08049 z m 7.78901,33.04412 1.36112,-3.28127 1.51339,0.62778 -1.36112,3.28126 z m 54.33098,-47.62223 -1.46668,-1.23906 -1.05734,1.25157 1.46668,1.23905 z m -61.4524,-22.54 0.13903,-1.63252 1.91307,0.16293 -0.13903,1.63251 z m 2.90924,80.65457 c -0.99411,0 -1.8,0.80589 -1.8,1.8 0,0.99411 0.80589,1.8 1.8,1.8 0.99411,0 1.8,-0.80589 1.8,-1.8 0,-0.99411 -0.80589,-1.8 -1.8,-1.8 z m 9.00256,-84.1297 c 16.66191,1.7456 32.45696,8.29765 45.46222,18.85848 2.92911,2.37856 5.80595,4.82082 8.62846,7.32502 1.19945,1.06418 1.30911,2.89918 0.24495,4.09861 -0.0387,0.0436 -0.0787,0.086 -0.11987,0.12718 l -59.40187,59.34078 c -1.01321,1.01217 -2.38702,1.58039 -3.81919,1.57966 -2.98233,-0.002 -5.39922,-2.42044 -5.39722,-5.40278 l 0.0432,-83.96373 c 8.2e-4,-1.60346 1.30135,-2.90265 2.9048,-2.90182 0.0583,3e-5 0.11652,0.002 0.17468,0.005 3.7663,0.22913 7.52715,0.5403 11.27984,0.93343 z m -6.17254,3.96393 0.13903,-1.63252 -1.91307,-0.16292 -0.13903,1.63251 z m 57.58919,25.78087 1.05734,-1.25156 -1.46667,-1.23906 -1.05735,1.25157 z m -50.61024,34.67651 -1.51338,-0.62778 -1.36113,3.28127 1.51339,0.62777 z m -5.18544,-60.30467 c -0.0843,0.99052 -0.95572,1.72516 -1.94625,1.64076 l -1.89895,-0.16172 c -0.18354,-0.0156 -0.36363,-0.0591 -0.53407,-0.12898 -0.27216,-0.11155 -0.57195,-0.13708 -0.85905,-0.0732 -0.17981,0.0398 -0.36466,0.0524 -0.54822,0.0368 l -0.83409,-0.071 c -0.79242,-0.0675 -1.48951,0.52018 -1.55699,1.3126 -0.003,0.0404 -0.005,0.0809 -0.005,0.12145 l -0.0141,27.20969 c -4e-4,0.79529 0.64397,1.44033 1.43926,1.44074 0.35036,1.8e-4 0.68876,-0.12738 0.95185,-0.35878 l 30.02997,-26.41542 c 0.59712,-0.52527 0.65539,-1.43517 0.13012,-2.03231 -0.16168,-0.18381 -0.36755,-0.32336 -0.59816,-0.40548 -6.32233,-2.25133 -12.89008,-3.74235 -19.56476,-4.44163 -0.83722,-0.0877 -1.67486,-0.17132 -2.51288,-0.25081 -0.79172,-0.0751 -1.49443,0.50584 -1.56953,1.29757 -4.4e-4,0.005 -8.5e-4,0.009 -10e-4,0.0138 z m -7.56906,43.65344 c 0.6596,-0.44432 1.55449,-0.26981 1.99881,0.38979 l 8.33063,12.36692 c 0.40868,0.60669 0.29756,1.42339 -0.25835,1.89885 -0.21532,0.18415 -0.38412,0.41653 -0.49268,0.67824 l -1.35569,3.26817 c -0.13595,0.32773 -0.17281,0.68813 -0.10603,1.0366 0.10836,0.56535 -0.1304,1.14091 -0.60709,1.46355 -0.29381,0.19887 -0.52288,0.47954 -0.65883,0.80727 l -1.35571,3.26818 c -0.17777,0.42854 -0.18322,0.90914 -0.0152,1.34158 0.13446,0.34594 0.13011,0.73043 -0.0121,1.07322 l -2.60555,6.28126 c -0.16708,0.40279 -0.50769,0.70817 -0.92627,0.83047 -0.18227,0.0532 -0.36001,0.12085 -0.53159,0.20213 -0.19292,0.0914 -0.40375,0.13874 -0.61722,0.13863 -0.79529,-4.1e-4 -1.43966,-0.64545 -1.43926,-1.44074 l 0.0167,-32.41056 c 2.1e-4,-0.47876 0.23839,-0.92609 0.63546,-1.19356 z m 76.11989,21.77329 -1.63843,0 0,-1.92 1.63843,0 0,-1.92 -1.63843,0 0,-0.72 -18.32315,0 0,0.72 -1.63842,0 0,1.92 1.63842,0 0,1.92 -1.63842,0 0,1.92 1.63842,0 0,0.72 18.32315,0 0,-0.72 1.63843,0 z m -30.35705,-71.65578 0,-1.92 1.63843,0 0,-0.72 39.92315,0 0,0.72 1.63842,0 0,1.92 -1.63842,0 0,1.92 1.63842,0 0,1.92 -1.63842,0 0,0.72 -39.92315,0 0,-0.72 -1.63843,0 0,-1.92 1.63843,0 0,-1.92 z m -33.27071,47.80718 0,0.72 18.32315,0 0,-0.72 1.63842,0 0,-3.55237 -1.63842,0 0,-3.55238 1.63842,0 0,-3.55237 -1.63842,0 0,-0.72 -18.32315,0 0,0.72 -1.63843,0 0,3.55237 1.63843,0 0,3.55238 -1.63843,0 0,3.55237 z m -13.68,57.64763 0,-3.55238 -1.63843,0 0,-3.55237 1.63843,0 0,-0.72 39.92315,0 0,0.72 1.63842,0 0,3.55237 -1.63842,0 0,3.55238 1.63842,0 0,3.55237 -1.63842,0 0,0.72 -39.92315,0 0,-0.72 -1.63843,0 0,-3.55237 z m 48.58914,-93.69481 -1.63843,0 0,-1.92 1.63843,0 0,-1.92 -1.63843,0 0,-1.92 1.63843,0 0,-0.72 39.92315,0 0,0.72 1.63842,0 0,1.92 -1.63842,0 0,1.92 1.63842,0 0,1.92 -1.63842,0 0,0.72 -39.92315,0 z m 8.75704,53.89578 -1.63842,0 0,-1.92 1.63842,0 0,-1.92 -1.63842,0 0,-1.92 1.63842,0 0,-0.72 18.32315,0 0,0.72 1.63843,0 0,1.92 -1.63843,0 0,1.92 1.63843,0 0,1.92 -1.63843,0 0,0.72 -18.32315,0 z"
             inkscape:connector-curvature="0" />
          <path
             style="fill:none;fill-rule:evenodd;stroke:#ff0000;stroke-width:0.32;stroke-linecap:butt;stroke-linejoin:miter;stroke-opacity:1;stroke-miterlimit:4;stroke-dasharray:none"
             d="m 597.60442,668.89603 0,-118.17142"
             id="path6308"
             inkscape:connector-curvature="0" />
        </g>
      </g>
    </g>
  </g>
</svg>
